<svg xmlns="http://www.w3.org/2000/svg" xmlns:xlink="http://www.w3.org/1999/xlink" width="500" zoomAndPan="magnify" viewBox="0 0 375 374.999991" height="500" preserveAspectRatio="xMidYMid meet" version="1.0"><defs><g/><clipPath id="1fbce55949"><path d="M 57.667969 57.667969 L 317.332031 57.667969 L 317.332031 317.332031 L 57.667969 317.332031 Z M 57.667969 57.667969 " clip-rule="nonzero"/></clipPath><clipPath id="1df39b76a4"><path d="M 317.332031 72.667969 L 317.332031 302.332031 C 317.332031 306.308594 315.75 310.125 312.9375 312.9375 C 310.125 315.75 306.308594 317.332031 302.332031 317.332031 L 72.667969 317.332031 C 68.691406 317.332031 64.875 315.75 62.0625 312.9375 C 59.25 310.125 57.667969 306.308594 57.667969 302.332031 L 57.667969 72.667969 C 57.667969 68.691406 59.25 64.875 62.0625 62.0625 C 64.875 59.25 68.691406 57.667969 72.667969 57.667969 L 302.332031 57.667969 C 306.308594 57.667969 310.125 59.25 312.9375 62.0625 C 315.75 64.875 317.332031 68.691406 317.332031 72.667969 Z M 317.332031 72.667969 " clip-rule="nonzero"/></clipPath><clipPath id="6a9bf7bd1e"><path d="M 0.667969 0.667969 L 260.332031 0.667969 L 260.332031 260.332031 L 0.667969 260.332031 Z M 0.667969 0.667969 " clip-rule="nonzero"/></clipPath><clipPath id="a2ae22e5df"><path d="M 260.332031 15.667969 L 260.332031 245.332031 C 260.332031 249.308594 258.75 253.125 255.9375 255.9375 C 253.125 258.75 249.308594 260.332031 245.332031 260.332031 L 15.667969 260.332031 C 11.691406 260.332031 7.875 258.75 5.0625 255.9375 C 2.25 253.125 0.667969 249.308594 0.667969 245.332031 L 0.667969 15.667969 C 0.667969 11.691406 2.25 7.875 5.0625 5.0625 C 7.875 2.25 11.691406 0.667969 15.667969 0.667969 L 245.332031 0.667969 C 249.308594 0.667969 253.125 2.25 255.9375 5.0625 C 258.75 7.875 260.332031 11.691406 260.332031 15.667969 Z M 260.332031 15.667969 " clip-rule="nonzero"/></clipPath><clipPath id="eba888156b"><rect x="0" width="261" y="0" height="261"/></clipPath></defs><g clip-path="url(#1fbce55949)"><g clip-path="url(#1df39b76a4)"><g transform="matrix(1, 0, 0, 1, 57, 57)"><g clip-path="url(#eba888156b)"><g clip-path="url(#6a9bf7bd1e)"><g clip-path="url(#a2ae22e5df)"><path fill="#000000" d="M 0.667969 0.667969 L 260.332031 0.667969 L 260.332031 260.332031 L 0.667969 260.332031 Z M 0.667969 0.667969 " fill-opacity="1" fill-rule="nonzero"/></g></g></g></g></g></g><g fill="#8b5cf6" fill-opacity="1"><g transform="translate(78.579242, 172.419423)"><g><path d="M 5.953125 0 L 5.953125 -60.59375 L 57.109375 -60.765625 C 63.847656 -60.765625 68.847656 -59.359375 72.109375 -56.546875 C 75.367188 -53.742188 77 -49.539062 77 -43.9375 C 77 -38.332031 75.128906 -34.222656 71.390625 -31.609375 C 73.878906 -30.253906 75.71875 -28.457031 76.90625 -26.21875 C 78.101562 -23.976562 78.703125 -21.101562 78.703125 -17.59375 C 78.703125 -11.875 77.070312 -7.523438 73.8125 -4.546875 C 70.550781 -1.566406 65.550781 -0.078125 58.8125 -0.078125 Z M 55.5 -49.890625 L 19.546875 -49.890625 L 19.546875 -36.28125 L 55.5 -36.28125 C 60.65625 -36.28125 63.234375 -38.601562 63.234375 -43.25 C 63.234375 -47.675781 60.65625 -49.890625 55.5 -49.890625 Z M 57.1875 -25.40625 L 19.546875 -25.40625 L 19.546875 -10.96875 L 57.1875 -10.96875 C 62.34375 -10.96875 64.921875 -13.398438 64.921875 -18.265625 C 64.921875 -23.023438 62.34375 -25.40625 57.1875 -25.40625 Z M 57.1875 -25.40625 "/></g></g></g><g fill="#8b5cf6" fill-opacity="1"><g transform="translate(156.509371, 172.419423)"><g><path d="M 5.953125 0 L 5.953125 -60.765625 L 19.546875 -60.765625 L 19.546875 -11.046875 L 64 -11.046875 L 64 0 Z M 5.953125 0 "/></g></g></g><g fill="#8b5cf6" fill-opacity="1"><g transform="translate(218.887369, 172.419423)"><g><path d="M 5.953125 0 L 5.953125 -60.59375 L 19.546875 -60.59375 L 19.546875 -35.859375 L 39.765625 -35.859375 L 59.75 -60.59375 L 76.65625 -60.59375 L 51.671875 -30.34375 L 76.65625 0 L 59.75 0 L 39.6875 -24.8125 L 19.546875 -24.8125 L 19.546875 0 Z M 5.953125 0 "/></g></g></g><g fill="#8b5cf6" fill-opacity="1"><g transform="translate(108.919084, 257.169418)"><g><path d="M 5.953125 0 L 5.953125 -60.59375 L 57.109375 -60.765625 C 63.847656 -60.765625 68.847656 -59.359375 72.109375 -56.546875 C 75.367188 -53.742188 77 -49.539062 77 -43.9375 C 77 -38.332031 75.128906 -34.222656 71.390625 -31.609375 C 73.878906 -30.253906 75.71875 -28.457031 76.90625 -26.21875 C 78.101562 -23.976562 78.703125 -21.101562 78.703125 -17.59375 C 78.703125 -11.875 77.070312 -7.523438 73.8125 -4.546875 C 70.550781 -1.566406 65.550781 -0.078125 58.8125 -0.078125 Z M 55.5 -49.890625 L 19.546875 -49.890625 L 19.546875 -36.28125 L 55.5 -36.28125 C 60.65625 -36.28125 63.234375 -38.601562 63.234375 -43.25 C 63.234375 -47.675781 60.65625 -49.890625 55.5 -49.890625 Z M 57.1875 -25.40625 L 19.546875 -25.40625 L 19.546875 -10.96875 L 57.1875 -10.96875 C 62.34375 -10.96875 64.921875 -13.398438 64.921875 -18.265625 C 64.921875 -23.023438 62.34375 -25.40625 57.1875 -25.40625 Z M 57.1875 -25.40625 "/></g></g></g><g fill="#8b5cf6" fill-opacity="1"><g transform="translate(186.849212, 257.169418)"><g><path d="M 0.84375 0 L 23.625 -30.34375 L 0.84375 -60.765625 L 17.421875 -60.765625 L 35.6875 -35.859375 L 43.515625 -35.859375 L 61.78125 -60.765625 L 78.359375 -60.765625 L 55.578125 -30.34375 L 78.359375 0 L 61.703125 0 L 43.515625 -24.8125 L 35.6875 -24.8125 L 17.5 0 Z M 0.84375 0 "/></g></g></g></svg>